<svg width="198" height="173" viewBox="0 0 198 173" fill="none" xmlns="http://www.w3.org/2000/svg">
<g filter="url(#filter0_d_166612_3163)">
<circle cx="68" cy="101" r="63.4677" fill="#FF9900" stroke="#FF9900" stroke-width="1.06452"/>
<path fill-rule="evenodd" clip-rule="evenodd" d="M125.677 50.0322C116.271 50.0322 108.645 57.6578 108.645 67.0645C108.645 76.4711 116.271 84.0968 125.677 84.0968C135.084 84.0968 142.71 76.4711 142.71 67.0645C142.71 57.6578 135.084 50.0322 125.677 50.0322ZM106.516 67.0645C106.516 56.482 115.095 47.9032 125.677 47.9032C136.26 47.9032 144.839 56.482 144.839 67.0645C144.839 77.647 136.26 86.2258 125.677 86.2258C115.095 86.2258 106.516 77.647 106.516 67.0645Z" fill="black"/>
<path fill-rule="evenodd" clip-rule="evenodd" d="M126.21 2.13463C123.285 2.13463 120.479 3.29661 118.411 5.36494C116.343 7.43327 115.181 10.2385 115.181 13.1636V14.1918L115.181 14.196C115.172 16.3504 114.534 18.4552 113.344 20.2514C112.155 22.0476 110.466 23.4568 108.486 24.3055C108.353 24.3624 108.21 24.3918 108.065 24.3918H107.801C105.837 25.2098 103.677 25.4442 101.581 25.0641C99.4094 24.6704 97.4054 23.635 95.8275 22.0915L95.8191 22.0833L95.4562 21.7204C94.432 20.6949 93.2152 19.881 91.8763 19.326C90.5374 18.771 89.1022 18.4853 87.6528 18.4853C86.2035 18.4853 84.7683 18.771 83.4294 19.326C82.0905 19.881 80.8742 20.6945 79.8499 21.72L79.849 21.7208C78.8236 22.7451 78.0101 23.9615 77.4551 25.3004C76.9001 26.6392 76.6144 28.0744 76.6144 29.5238C76.6144 30.9732 76.9001 32.4083 77.4551 33.7472C78.0101 35.0861 78.8236 36.3025 79.849 37.3268L80.2207 37.6984C81.7641 39.2763 82.7994 41.2804 83.1932 43.4522C83.585 45.6129 83.3239 47.8412 82.4435 49.8524C81.6761 51.9194 80.3077 53.7098 78.5139 54.9927C76.711 56.2823 74.5618 56.9995 72.3458 57.0514L72.3208 57.0517H71.7765C68.8514 57.0517 66.0462 58.2136 63.9779 60.282C61.9095 62.3503 60.7476 65.1556 60.7476 68.0806C60.7476 71.0057 61.9095 73.8109 63.9779 75.8793C66.0462 77.9476 68.8514 79.1096 71.7765 79.1096H72.8089C74.9633 79.1182 77.0681 79.7565 78.8643 80.9461C80.659 82.1346 82.0672 83.8215 82.9161 85.7994C83.8055 87.8173 84.0705 90.0553 83.6771 92.2252C83.2833 94.397 82.2479 96.4011 80.7045 97.979L80.6962 97.9874L80.3333 98.3502C79.3079 99.3745 78.494 100.591 77.9389 101.93C77.3839 103.269 77.0982 104.704 77.0982 106.154C77.0982 107.603 77.3839 109.038 77.9389 110.377C78.494 111.716 79.3074 112.932 80.3329 113.957L80.3337 113.957C81.358 114.983 82.5744 115.796 83.9133 116.351C85.2522 116.906 86.6873 117.192 88.1367 117.192C89.5861 117.192 91.0212 116.906 92.3601 116.351C93.699 115.796 94.9154 114.983 95.9397 113.957L96.3113 113.586C97.8892 112.042 99.8933 111.007 102.065 110.613C104.226 110.221 106.454 110.483 108.465 111.363C110.532 112.13 112.323 113.499 113.606 115.293C114.895 117.096 115.612 119.245 115.664 121.461L115.665 121.486V122.03C115.665 124.955 116.827 127.76 118.895 129.829C120.963 131.897 123.768 133.059 126.694 133.059C129.619 133.059 132.424 131.897 134.492 129.829C136.561 127.76 137.722 124.955 137.722 122.03V121.002L137.722 120.998C137.731 118.843 138.369 116.738 139.559 114.942C140.747 113.148 142.434 111.739 144.412 110.891C146.43 110.001 148.668 109.736 150.838 110.129C153.01 110.523 155.014 111.559 156.592 113.102L156.6 113.11L156.963 113.473C157.987 114.499 159.204 115.312 160.543 115.868C161.882 116.423 163.317 116.708 164.767 116.708C166.216 116.708 167.651 116.423 168.99 115.868C170.329 115.312 171.545 114.499 172.57 113.474L172.57 113.473C173.596 112.448 174.409 111.232 174.964 109.893C175.519 108.554 175.805 107.119 175.805 105.67C175.805 104.22 175.519 102.785 174.964 101.446C174.409 100.107 173.596 98.8911 172.57 97.8668L172.199 97.4951C170.655 95.9173 169.62 93.9132 169.226 91.7414C168.833 89.5712 169.098 87.3331 169.987 85.315C170.836 83.3373 172.244 81.6506 174.039 80.4622C175.835 79.2727 177.94 78.6343 180.094 78.6257L180.099 78.6257L180.643 78.6257C183.568 78.6257 186.373 77.4637 188.442 75.3954C190.51 73.3271 191.672 70.5218 191.672 67.5968C191.672 64.6717 190.51 61.8665 188.442 59.7981C186.373 57.7298 183.568 56.5678 180.643 56.5678H179.615L179.61 56.5678C177.456 56.5592 175.351 55.9209 173.555 54.7313C171.759 53.5418 170.35 51.853 169.501 49.8728C169.444 49.74 169.415 49.5969 169.415 49.4524V49.1876C168.597 47.2242 168.362 45.0645 168.742 42.9683C169.136 40.7965 170.171 38.7925 171.715 37.2146L171.723 37.2062L172.086 36.8433C173.112 35.819 173.925 34.6022 174.48 33.2634C175.035 31.9245 175.321 30.4893 175.321 29.0399C175.321 27.5906 175.035 26.1554 174.48 24.8165C173.925 23.4776 173.112 22.2612 172.086 21.2369L172.086 21.2361C171.061 20.2107 169.845 19.3972 168.506 18.8422C167.167 18.2871 165.732 18.0015 164.283 18.0015C162.833 18.0015 161.398 18.2871 160.059 18.8422C158.72 19.3972 157.504 20.2107 156.48 21.2361L156.108 21.6077C154.53 23.1512 152.526 24.1865 150.354 24.5803C148.184 24.9737 145.946 24.7087 143.928 23.8194C141.951 22.9705 140.264 21.5622 139.075 19.7676C137.886 17.9714 137.247 15.8665 137.239 13.7122L137.239 13.7079V13.1636C137.239 10.2385 136.077 7.43327 134.008 5.36494C131.94 3.29661 129.135 2.13463 126.21 2.13463ZM116.902 3.85552C119.37 1.38687 122.718 0 126.21 0C129.701 0 133.049 1.38687 135.518 3.85552C137.986 6.32417 139.373 9.67238 139.373 13.1636L139.373 13.7037C139.373 13.7043 139.373 13.705 139.373 13.7056C139.381 15.443 139.896 17.1404 140.855 18.5889C141.815 20.038 143.177 21.1749 144.775 21.8596L144.785 21.8641C146.414 22.5831 148.221 22.7976 149.973 22.4799C151.724 22.1625 153.339 21.3287 154.611 20.0856C154.613 20.0843 154.614 20.083 154.615 20.0817L154.969 19.7275C154.97 19.7274 154.969 19.7277 154.969 19.7275C156.192 18.5038 157.644 17.5326 159.242 16.8703C160.84 16.2078 162.553 15.8668 164.283 15.8668C166.013 15.8668 167.726 16.2078 169.324 16.8703C170.921 17.5325 172.373 18.5032 173.595 19.7267C174.819 20.9492 175.79 22.401 176.452 23.9991C177.115 25.5971 177.456 27.31 177.456 29.0399C177.456 30.7698 177.115 32.4828 176.452 34.0808C175.79 35.6788 174.819 37.1306 173.595 38.3532L173.241 38.7073C173.24 38.7087 173.238 38.71 173.237 38.7114C171.994 39.9838 171.16 41.5989 170.843 43.3492C170.525 45.1013 170.739 46.9085 171.458 48.5376C171.518 48.6733 171.549 48.8201 171.549 48.9685V49.2268C172.241 50.7403 173.344 52.0312 174.734 52.9516C176.182 53.9109 177.88 54.4259 179.617 54.4332H180.643C184.134 54.4332 187.482 55.8201 189.951 58.2887C192.42 60.7574 193.806 64.1056 193.806 67.5968C193.806 71.088 192.42 74.4362 189.951 76.9048C187.482 79.3735 184.134 80.7604 180.643 80.7604L180.103 80.7603C180.102 80.7603 180.101 80.7604 180.101 80.7604C178.363 80.7677 176.666 81.2826 175.218 82.242C173.768 83.2016 172.632 84.5641 171.947 86.1616L171.942 86.1721C171.223 87.8012 171.009 89.6084 171.327 91.3605C171.644 93.1107 172.478 94.7258 173.72 95.9981C173.722 95.9995 173.723 96.001 173.725 96.0024L174.079 96.3565C174.079 96.3567 174.079 96.3564 174.079 96.3565C175.303 97.579 176.274 99.0311 176.936 100.629C177.599 102.227 177.94 103.94 177.94 105.67C177.94 107.4 177.599 109.113 176.936 110.711C176.274 112.308 175.303 113.76 174.079 114.983C172.857 116.206 171.405 117.177 169.807 117.839C168.209 118.502 166.496 118.843 164.767 118.843C163.037 118.843 161.324 118.502 159.726 117.839C158.128 117.177 156.676 116.206 155.454 114.983C155.454 114.982 155.454 114.983 155.454 114.983L155.099 114.628C155.098 114.627 155.096 114.625 155.095 114.624C153.823 113.381 152.207 112.547 150.457 112.23C148.705 111.912 146.898 112.127 145.269 112.846L145.258 112.85C143.661 113.535 142.298 114.672 141.339 116.121C140.379 117.569 139.864 119.267 139.857 121.004C139.857 121.005 139.857 121.005 139.857 121.006L139.857 122.03C139.857 125.521 138.47 128.869 136.002 131.338C133.533 133.807 130.185 135.194 126.694 135.194C123.202 135.194 119.854 133.807 117.385 131.338C114.917 128.869 113.53 125.521 113.53 122.03V121.498C113.486 119.715 112.907 117.986 111.869 116.534C110.829 115.08 109.375 113.972 107.697 113.355C107.686 113.35 107.674 113.346 107.663 113.342C107.653 113.338 107.644 113.334 107.634 113.329C106.005 112.61 104.198 112.396 102.446 112.714C100.696 113.031 99.0805 113.865 97.8082 115.108C97.8068 115.109 97.8054 115.11 97.804 115.112L97.4499 115.466C96.2274 116.69 94.7756 117.661 93.1776 118.323C91.5795 118.986 89.8666 119.327 88.1367 119.327C86.4068 119.327 84.6939 118.986 83.0958 118.323C81.4978 117.661 80.046 116.69 78.8235 115.466C77.6 114.244 76.6293 112.792 75.967 111.194C75.3046 109.596 74.9636 107.884 74.9636 106.154C74.9636 104.424 75.3046 102.711 75.967 101.113C76.6294 99.5149 77.6002 98.0632 78.8239 96.8408C78.824 96.8407 78.8237 96.8409 78.8239 96.8408L79.1785 96.4863C79.1798 96.4849 79.1812 96.4836 79.1825 96.4822C80.4255 95.2099 81.2593 93.5946 81.5767 91.8444C81.8944 90.0922 81.6799 88.2851 80.9609 86.656L80.9563 86.6455C80.2716 85.048 79.1348 83.6855 77.6857 82.7258C76.2371 81.7665 74.5398 81.2515 72.8024 81.2442C72.8017 81.2442 72.8011 81.2442 72.8004 81.2442L71.7765 81.2442C68.2853 81.2442 64.9371 79.8573 62.4684 77.3887C59.9998 74.92 58.6129 71.5718 58.6129 68.0806C58.6129 64.5894 59.9998 61.2412 62.4684 58.7726C64.9371 56.3039 68.2853 54.917 71.7765 54.917H72.308C74.0915 54.8729 75.8208 54.2945 77.2721 53.2565C78.7266 52.2162 79.8345 50.7623 80.4518 49.084C80.4596 49.0629 80.468 49.042 80.4771 49.0214C81.1961 47.3923 81.4105 45.5852 81.0928 43.833C80.7755 42.0828 79.9416 40.4675 78.6986 39.1952L78.3405 38.837C77.1165 37.6145 76.1456 36.1627 75.4832 34.5646C74.8207 32.9666 74.4797 31.2537 74.4797 29.5238C74.4797 27.7939 74.8207 26.0809 75.4832 24.4829C76.1456 22.8849 77.1165 21.4331 78.3405 20.2105C79.5628 18.987 81.0143 18.0164 82.612 17.3541C84.21 16.6917 85.9229 16.3507 87.6528 16.3507C89.3827 16.3507 91.0957 16.6917 92.6937 17.3541C94.2916 18.0165 95.7432 18.9873 96.9657 20.211C96.9658 20.2111 96.9655 20.2108 96.9657 20.211L97.3243 20.5697C98.5967 21.8126 100.212 22.6464 101.962 22.9638C103.714 23.2815 105.521 23.067 107.15 22.348C107.286 22.2881 107.433 22.2571 107.581 22.2571H107.84C109.353 21.5652 110.644 20.4626 111.565 19.0728C112.524 17.6242 113.039 15.9269 113.046 14.1895V13.1636C113.046 9.67238 114.433 6.32417 116.902 3.85552Z" fill="black"/>
</g>
<defs>
<filter id="filter0_d_166612_3163" x="0" y="0" width="198" height="173" filterUnits="userSpaceOnUse" color-interpolation-filters="sRGB">
<feFlood flood-opacity="0" result="BackgroundImageFix"/>
<feColorMatrix in="SourceAlpha" type="matrix" values="0 0 0 0 0 0 0 0 0 0 0 0 0 0 0 0 0 0 127 0" result="hardAlpha"/>
<feOffset dy="4"/>
<feGaussianBlur stdDeviation="2"/>
<feComposite in2="hardAlpha" operator="out"/>
<feColorMatrix type="matrix" values="0 0 0 0 0 0 0 0 0 0 0 0 0 0 0 0 0 0 0.25 0"/>
<feBlend mode="normal" in2="BackgroundImageFix" result="effect1_dropShadow_166612_3163"/>
<feBlend mode="normal" in="SourceGraphic" in2="effect1_dropShadow_166612_3163" result="shape"/>
</filter>
</defs>
</svg>
